<?xml version="1.0" encoding="UTF-8" standalone="no"?>
<svg width="800px" height="181px" viewBox="0 0 800 181" version="1.1" xmlns="http://www.w3.org/2000/svg" xmlns:xlink="http://www.w3.org/1999/xlink" xmlns:sketch="http://www.bohemiancoding.com/sketch/ns">
    <!-- Generator: Sketch 3.1.1 (8761) - http://www.bohemiancoding.com/sketch -->
    <title>signal-no-subscribers</title>
    <desc>Created with Sketch.</desc>
    <defs></defs>
    <g id="Page-1" stroke="none" stroke-width="1" fill="none" fill-rule="evenodd" sketch:type="MSPage">
        <g id="signal-no-subscribers" sketch:type="MSArtboardGroup">
            <rect id="Rectangle-2" stroke="#000000" stroke-width="5" stroke-linecap="round" stroke-linejoin="round" fill="#D8D8D8" sketch:type="MSShapeGroup" x="69" y="52" width="159" height="106" rx="8"></rect>
            <g id="g2386" sketch:type="MSLayerGroup" transform="translate(118.000000, 68.000000)">
                <g transform="translate(-0.029814, 0.000000)" sketch:type="MSShapeGroup">
                    <path d="M61.0230126,35.0930555 C61.0230126,52.1619371 47.3618802,65.9989995 30.5100193,65.9989995 C13.6581584,65.9989995 -0.00297401613,52.1619371 -0.00297401613,35.0930555 C-0.00297401613,18.0241739 13.6581584,4.18711144 30.5100193,4.18711144 C47.3618802,4.18711144 61.0230126,18.0241739 61.0230126,35.0930555 L61.0230126,35.0930555 Z" id="path3187" stroke="#000000" stroke-width="5.27414768" fill="#D8D8D8"></path>
                    <path d="M51.3161414,35.0930554 C51.3161414,46.7319409 42.0009232,56.1671218 30.5100192,56.1671218 C19.0191153,56.1671218 9.70389709,46.7319409 9.70389709,35.0930554 C9.70389709,23.45417 19.0191153,14.0189891 30.5100192,14.0189891 C42.0009232,14.0189891 51.3161414,23.45417 51.3161414,35.0930554 L51.3161414,35.0930554 Z" id="path3185" stroke="#000000" stroke-width="3.59632238" fill="#D8D8D8"></path>
                    <path d="M43.3596899,35.0930555 C43.3596899,42.2811242 37.6066967,48.1082053 30.51002,48.1082053 C23.4133432,48.1082053 17.66035,42.2811242 17.66035,35.0930555 C17.66035,27.9049867 23.4133432,22.0779056 30.51002,22.0779056 C37.6066967,22.0779056 43.3596899,27.9049867 43.3596899,35.0930555 L43.3596899,35.0930555 Z" id="path3183" stroke="#000000" stroke-width="2.22105567" fill="#D8D8D8"></path>
                    <path d="M37.5514794,35.0930555 C37.5514794,39.0320283 34.3989103,42.2251967 30.5100192,42.2251967 C26.6211281,42.2251967 23.468559,39.0320283 23.468559,35.0930555 C23.468559,31.1540827 26.6211281,27.9609144 30.5100192,27.9609144 C34.3989103,27.9609144 37.5514794,31.1540827 37.5514794,35.0930555 L37.5514794,35.0930555 Z" id="path3181" stroke="#000000" stroke-width="1.21711104" fill="#D8D8D8"></path>
                    <path d="M30.5532183,35.2680774 L53.4055644,0.00117002118 L7.61447279,0.00117002118 L30.5532183,35.2680774 L30.5532183,35.2680774 Z" id="path3192" fill="#D8D8D8"></path>
                    <path d="M30.5532206,35.3118327 L53.4055644,70.5787391 L7.61447279,70.5787391 L30.5532206,35.3118327 L30.5532206,35.3118327 Z" id="rect3189" fill="#D8D8D8"></path>
                    <path d="M32.6483769,35.2899552 C32.6261548,36.177251 32.1211641,36.9146548 31.3421075,37.2855572 C31.214207,37.3403814 32.5738098,65.0310637 32.6255647,65.918511 C30.5766051,65.9260733 30.5276396,65.9214667 28.3792007,65.9302265 C28.4156824,65.0427792 29.8058312,37.3403814 29.6779307,37.2855572 C28.8781096,36.9177949 28.4065197,36.1625378 28.3716617,35.2899552 C28.3716617,34.0943808 29.3296457,33.1240595 30.5100191,33.1240595 C31.6903925,33.1240595 32.6483769,34.0943808 32.6483769,35.2899552 L32.6483769,35.2899552 Z" id="path2385" fill="#000000"></path>
                </g>
            </g>
            <text id="usernameIsValidSigna-2" sketch:type="MSTextLayer" font-family="Helvetica Neue" font-size="18" font-weight="normal" fill="#000000">
                <tspan x="19" y="32">usernameIsValidSignal</tspan>
            </text>
        </g>
    </g>
</svg>